<?xml version="1.0" encoding="UTF-8"?>
<svg width="200px" height="200px" viewBox="0 0 200 200" version="1.1" xmlns="http://www.w3.org/2000/svg" xmlns:xlink="http://www.w3.org/1999/xlink">
    <!-- Generator: Sketch 52.2 (67145) - http://www.bohemiancoding.com/sketch -->
    <title>Group</title>
    <desc>Created with Sketch.</desc>
    <g id="Page-1" stroke="none" stroke-width="1" fill="none" fill-rule="evenodd">
        <g id="Group">
            <path d="M45,0 L155,0 C179.852814,-4.56538782e-15 200,20.1471863 200,45 L200,155 C200,179.852814 179.852814,200 155,200 L45,200 C20.1471863,200 3.04359188e-15,179.852814 0,155 L0,45 C-3.04359188e-15,20.1471863 20.1471863,4.56538782e-15 45,0 Z" id="Mint" fill="#50E3C2"></path>
            <path d="M100.065104,109.24479 C94.9953025,109.24479 90.8854167,105.134904 90.8854167,100.065103 C90.8854167,94.9953008 94.9953025,90.885415 100.065104,90.885415 C105.134906,90.885415 109.244792,94.9953008 109.244792,100.065103 C109.244792,105.134904 105.134906,109.24479 100.065104,109.24479 Z M129.492188,109.24479 C124.422386,109.24479 120.3125,105.134904 120.3125,100.065103 C120.3125,94.9953008 124.422386,90.885415 129.492188,90.885415 C134.561989,90.885415 138.671875,94.9953008 138.671875,100.065103 C138.671875,105.134904 134.561989,109.24479 129.492188,109.24479 Z M70.6380208,109.24479 C65.5682195,109.24479 61.4583333,105.134904 61.4583333,100.065103 C61.4583333,94.9953008 65.5682195,90.885415 70.6380208,90.885415 C75.7078223,90.885415 79.8177083,94.9953008 79.8177083,100.065103 C79.8177083,105.134904 75.7078223,109.24479 70.6380208,109.24479 Z M41.2109375,109.24479 C36.1411362,109.24479 32.03125,105.134904 32.03125,100.065103 C32.03125,94.9953008 36.1411362,90.885415 41.2109375,90.885415 C46.280739,90.885415 50.390625,94.9953008 50.390625,100.065103 C50.390625,105.134904 46.280739,109.24479 41.2109375,109.24479 Z M158.919271,109.24479 C153.849469,109.24479 149.739583,105.134904 149.739583,100.065103 C149.739583,94.9953008 153.849469,90.885415 158.919271,90.885415 C163.989073,90.885415 168.098958,94.9953008 168.098958,100.065103 C168.098958,105.134904 163.989073,109.24479 158.919271,109.24479 Z M90.8854167,41.2109358 C90.8854167,36.1411345 94.9953025,32.0312483 100.065104,32.0312483 C105.134906,32.0312483 109.244792,36.1411345 109.244792,41.2109358 C109.244792,46.2807372 105.134906,50.3906233 100.065104,50.3906233 C94.9953025,50.3906233 90.8854167,46.2807372 90.8854167,41.2109358 Z M90.8854167,158.919269 C90.8854167,153.849468 94.9953025,149.739582 100.065104,149.739582 C105.134906,149.739582 109.244792,153.849468 109.244792,158.919269 C109.244792,163.989071 105.134906,168.098957 100.065104,168.098957 C94.9953025,168.098957 90.8854167,163.989071 90.8854167,158.919269 Z M53.8160323,137.476939 C49.3798373,140.038178 43.7072967,138.518225 41.1460582,134.08203 C38.5848197,129.645834 40.1047725,123.973294 44.5409675,121.412055 C48.9771627,118.850817 54.6497033,120.37077 57.2109418,124.806965 C59.7721802,129.24316 58.2522275,134.915701 53.8160323,137.476939 Z M155.589241,78.7181497 C151.153046,81.2793882 145.480505,79.7594355 142.919267,75.3232402 C140.358028,70.8870452 141.877981,65.2145045 146.314176,62.653266 C150.750371,60.0920277 156.422912,61.6119803 158.98415,66.0481753 C161.545388,70.4843705 160.025436,76.1569112 155.589241,78.7181497 Z M44.5409675,78.7181497 C40.1047725,76.1569112 38.5848197,70.4843705 41.1460582,66.0481753 C43.7072967,61.6119803 49.3798373,60.0920277 53.8160323,62.6532662 C58.2522275,65.2145045 59.7721802,70.8870452 57.2109418,75.3232403 C54.6497033,79.7594355 48.9771627,81.2793882 44.5409675,78.7181497 Z M146.314176,137.476939 C141.877981,134.915701 140.358028,129.24316 142.919267,124.806965 C145.480505,120.37077 151.153046,118.850817 155.589241,121.412055 C160.025436,123.973294 161.545388,129.645834 158.98415,134.082029 C156.422912,138.518225 150.750371,140.038178 146.314176,137.476939 Z M122.787243,79.2593328 C120.226005,83.6955283 114.553464,85.2154808 110.117269,82.6542422 C105.681074,80.0930037 104.161122,74.4204632 106.72236,69.9842678 C109.283598,65.5480728 114.956139,64.0281202 119.392334,66.5893587 C123.828529,69.150597 125.348482,74.8231377 122.787243,79.2593328 Z M93.4078483,130.145937 C90.84661,134.582133 85.1740692,136.102085 80.7378745,133.540847 C76.3016793,130.979608 74.7817267,125.307068 77.3429652,120.870873 C79.9042035,116.434677 85.5767442,114.914724 90.0129392,117.475962 C94.4491342,120.037202 95.9690867,125.709742 93.4078483,130.145937 Z M78.7181513,155.589239 C76.1569128,160.025434 70.4843722,161.545387 66.0481772,158.984148 C61.611982,156.42291 60.0920293,150.750369 62.6532678,146.314174 C65.2145062,141.877979 70.8870468,140.358027 75.323242,142.919265 C79.7594372,145.480503 81.2793898,151.153044 78.7181513,155.589239 Z M137.476941,53.8160307 C134.915703,58.2522258 129.243162,59.7721785 124.806967,57.21094 C120.370772,54.6497015 118.850818,48.9771608 121.412057,44.5409658 C123.973296,40.1047707 129.645836,38.584818 134.082032,41.1460565 C138.518227,43.707295 140.038179,49.3798355 137.476941,53.8160307 Z M93.4078483,69.9842678 C95.9690867,74.4204632 94.4491342,80.0930037 90.0129392,82.6542422 C85.5767442,85.2154808 79.9042035,83.6955283 77.3429652,79.2593328 C74.7817267,74.8231377 76.3016793,69.150597 80.7378745,66.5893587 C85.1740692,64.0281202 90.84661,65.5480728 93.4078483,69.9842678 Z M122.787243,120.870873 C125.348482,125.307068 123.828529,130.979608 119.392334,133.540847 C114.956139,136.102085 109.283598,134.582133 106.72236,130.145937 C104.161122,125.709742 105.681074,120.037202 110.117269,117.475962 C114.553464,114.914724 120.226005,116.434677 122.787243,120.870873 Z M137.476941,146.314174 C140.038179,150.750369 138.518227,156.42291 134.082032,158.984148 C129.645836,161.545387 123.973296,160.025434 121.412057,155.589239 C118.850818,151.153044 120.370772,145.480503 124.806967,142.919265 C129.243162,140.358027 134.915703,141.877979 137.476941,146.314174 Z M78.7181513,44.5409658 C81.2793898,48.9771608 79.7594372,54.6497015 75.323242,57.21094 C70.8870468,59.7721785 65.2145062,58.2522258 62.6532678,53.8160307 C60.0920293,49.3798355 61.611982,43.707295 66.0481772,41.1460565 C70.4843722,38.584818 76.1569128,40.1047707 78.7181513,44.5409658 Z" id="Combined-Shape" fill="#8F12FF" fill-rule="nonzero" transform="translate(100.065104, 100.065103) rotate(90.000000) translate(-100.065104, -100.065103) "></path>
        </g>
    </g>
</svg>