<?xml version="1.0" encoding="UTF-8"?>
<svg width="240px" height="53px" viewBox="0 0 240 53" version="1.1" xmlns="http://www.w3.org/2000/svg" xmlns:xlink="http://www.w3.org/1999/xlink">
    <!-- Generator: Sketch 52.2 (67145) - http://www.bohemiancoding.com/sketch -->
    <title>Combined Shape</title>
    <desc>Created with Sketch.</desc>
    <g id="Page-1" stroke="none" stroke-width="1" fill="none" fill-rule="evenodd">
        <path d="M7.40172071,30.556804 L7.40172071,50.1260924 L0,50.1260924 L0,1.93632959 L8.38649901,1.93632959 C12.4950569,1.93632959 15.597607,2.21722566 17.6942422,2.77902622 C19.8120556,3.34082678 21.6757034,4.4019897 23.2852416,5.96254682 C26.1019333,8.66751248 27.5102581,12.0798795 27.5102581,16.1997503 C27.5102581,20.6109251 26.0066332,24.1065206 22.9993382,26.6866417 C19.9920432,29.2667628 15.9364914,30.556804 10.8325612,30.556804 L7.40172071,30.556804 Z M7.40172071,23.815231 L10.1654533,23.815231 C16.9636343,23.815231 20.3626737,21.2455521 20.3626737,16.1061174 C20.3626737,11.133142 16.8577452,8.64669164 9.84778293,8.64669164 L7.40172071,8.64669164 L7.40172071,23.815231 Z M93.2680344,50.1260924 L93.2680344,1.93632959 L103.560556,1.93632959 C108.495061,1.93632959 112.391779,2.41489326 115.250827,3.37203496 C118.321657,4.30836923 121.106539,5.90011361 123.605559,8.14731586 C128.667133,12.6833352 131.197882,18.644574 131.197882,26.031211 C131.197882,33.4386554 128.561244,39.4311049 123.287889,44.0087391 C120.640622,46.2975562 117.866328,47.8893006 114.964924,48.78402 C112.254123,49.6787394 108.410349,50.1260924 103.433488,50.1260924 L93.2680344,50.1260924 Z M100.669755,43.2908864 L104.005295,43.2908864 C107.330261,43.2908864 110.093966,42.947569 112.296492,42.2609238 C114.499018,41.5326639 116.489733,40.3778689 118.268696,38.7965044 C121.911335,35.5297381 123.732627,31.2746829 123.732627,26.031211 C123.732627,20.7461242 121.932513,16.4598583 118.33223,13.1722846 C115.091976,10.2384373 110.316378,8.77153558 104.005295,8.77153558 L100.669755,8.77153558 L100.669755,43.2908864 Z M167.571145,8.77153558 L147.907346,8.77153558 L147.907346,20.3508115 L166.999338,20.3508115 L166.999338,27.1860175 L147.907346,27.1860175 L147.907346,43.2908864 L167.571145,43.2908864 L167.571145,50.1260924 L140.505625,50.1260924 L140.505625,1.93632959 L167.571145,1.93632959 L167.571145,8.77153558 Z M205.024487,9.11485643 L199.020516,12.6104869 C197.898075,10.6962035 196.828595,9.44777653 195.812045,8.86516854 C194.753138,8.19933084 193.387169,7.86641698 191.714097,7.86641698 C189.659818,7.86641698 187.955003,8.43861267 186.599603,9.58302122 C185.244202,10.7066223 184.566512,12.1215062 184.566512,13.8277154 C184.566512,16.1789547 186.345449,18.0724023 189.903375,19.5081149 L194.7955,21.474407 C198.776989,23.0557715 201.688939,24.9856316 203.531436,27.2640449 C205.373934,29.5424583 206.295169,32.3358137 206.295169,35.6441948 C206.295169,40.076177 204.791544,43.7382294 201.784249,46.6304619 C198.755776,49.5435019 194.996713,51 190.506949,51 C186.250144,51 182.734627,49.7619766 179.960291,47.2858926 C177.228312,44.8098087 175.523498,41.3246167 174.845797,36.8302122 L182.342819,35.2072409 C182.681669,38.0370512 183.274648,39.9929201 184.121774,41.0749064 C185.646599,43.1556492 187.87027,44.196005 190.792852,44.196005 C193.101269,44.196005 195.017861,43.4365453 196.542687,41.917603 C198.067513,40.3986607 198.829914,38.4740025 198.829914,36.1435705 C198.829914,35.2072363 198.697553,34.3489427 198.432826,33.5686642 C198.168099,32.7883856 197.755132,32.0705401 197.193911,31.4151061 C196.632691,30.7596721 195.907351,30.1458622 195.017869,29.5736579 C194.128387,29.0014537 193.069497,28.4552669 191.841165,27.9350811 L187.107876,26 C180.394407,23.2118046 177.037723,19.1336099 177.037723,13.7652934 C177.037723,10.1448009 178.446048,7.11736548 181.26274,4.68289638 C184.079432,2.22761985 187.58436,1 191.777631,1 C197.432192,1 201.847767,3.70492509 205.024487,9.11485643 Z M228.754467,8.77153558 L228.754467,50.1260924 L221.352747,50.1260924 L221.352747,8.77153558 L210.075447,8.77153558 L210.075447,1.93632959 L240,1.93632959 L240,8.77153558 L228.754467,8.77153558 Z M56.3157895,27.1842105 C56.3157895,25.2948153 57.817992,23.7631579 59.6710526,23.7631579 C61.5241133,23.7631579 63.0263158,25.2948153 63.0263158,27.1842105 C63.0263158,29.0736057 61.5241133,30.6052632 59.6710526,30.6052632 C57.817992,30.6052632 56.3157895,29.0736057 56.3157895,27.1842105 Z M56.3157895,37.4473684 C56.3157895,35.5579732 57.817992,34.0263158 59.6710526,34.0263158 C61.5241133,34.0263158 63.0263158,35.5579732 63.0263158,37.4473684 C63.0263158,39.3367636 61.5241133,40.8684211 59.6710526,40.8684211 C57.817992,40.8684211 56.3157895,39.3367636 56.3157895,37.4473684 Z M56.3157895,14.8684211 C56.3157895,12.9790259 57.817992,11.4473684 59.6710526,11.4473684 C61.5241133,11.4473684 63.0263158,12.9790259 63.0263158,14.8684211 C63.0263158,16.7578162 61.5241133,18.2894737 59.6710526,18.2894737 C57.817992,18.2894737 56.3157895,16.7578162 56.3157895,14.8684211 Z M56.3157895,3.92105263 C56.3157895,2.03165743 57.817992,0.5 59.6710526,0.5 C61.5241133,0.5 63.0263158,2.03165743 63.0263158,3.92105263 C63.0263158,5.81044783 61.5241133,7.34210526 59.6710526,7.34210526 C57.817992,7.34210526 56.3157895,5.81044783 56.3157895,3.92105263 Z M56.3157895,49.0789474 C56.3157895,47.1895522 57.817992,45.6578947 59.6710526,45.6578947 C61.5241133,45.6578947 63.0263158,47.1895522 63.0263158,49.0789474 C63.0263158,50.9683426 61.5241133,52.5 59.6710526,52.5 C57.817992,52.5 56.3157895,50.9683426 56.3157895,49.0789474 Z M81.1447368,23.7631579 C82.9977975,23.7631579 84.5,25.2948153 84.5,27.1842105 C84.5,29.0736057 82.9977975,30.6052632 81.1447368,30.6052632 C79.2916762,30.6052632 77.7894737,29.0736057 77.7894737,27.1842105 C77.7894737,25.2948153 79.2916762,23.7631579 81.1447368,23.7631579 Z M36.8552632,23.7631579 C38.7083238,23.7631579 40.2105263,25.2948153 40.2105263,27.1842105 C40.2105263,29.0736057 38.7083238,30.6052632 36.8552632,30.6052632 C35.0022025,30.6052632 33.5,29.0736057 33.5,27.1842105 C33.5,25.2948153 35.0022025,23.7631579 36.8552632,23.7631579 Z M44.9775425,8.8253308 C44.017556,7.12998259 44.5872546,4.96214925 46.25,3.9833395 C47.9127454,3.00452976 50.0388896,3.58539895 50.9988761,5.28074716 C51.9588626,6.97609537 51.3891639,9.14392871 49.7264186,10.1227385 C48.0636732,11.1015482 45.937529,10.520679 44.9775425,8.8253308 Z M67.0011239,47.7192528 C66.0411374,46.0239046 66.6108361,43.8560713 68.2735814,42.8772615 C69.9363268,41.8984518 72.062471,42.479321 73.0224575,44.1746692 C73.982444,45.8700174 73.4127454,48.0378508 71.75,49.0166605 C70.0872546,49.9954702 67.9611104,49.414601 67.0011239,47.7192528 Z M67.0011239,5.28074716 C67.9611104,3.58539895 70.0872546,3.00452976 71.75,3.9833395 C73.4127454,4.96214925 73.982444,7.12998259 73.0224575,8.8253308 C72.062471,10.520679 69.9363268,11.1015482 68.2735814,10.1227385 C66.6108361,9.14392871 66.0411374,6.97609537 67.0011239,5.28074716 Z M44.9775425,44.1746692 C45.937529,42.479321 48.0636732,41.8984518 49.7264186,42.8772615 C51.3891639,43.8560713 51.9588626,46.0239046 50.9988761,47.7192528 C50.0388896,49.414601 47.9127454,49.9954702 46.25,49.0166605 C44.5872546,48.0378508 44.017556,45.8700174 44.9775425,44.1746692 Z M66.7982812,35.1835536 C65.1355359,34.2047438 64.5658372,32.0369105 65.5258237,30.3415623 C66.4858102,28.6462141 68.6119544,28.0653449 70.2746998,29.0441546 C71.9374451,30.0229644 72.5071438,32.1907977 71.5471573,33.8861459 C70.5871708,35.5814941 68.4610266,36.1623633 66.7982812,35.1835536 Z M47.7253002,23.9558454 C46.0625549,22.9770356 45.4928562,20.8092023 46.4528427,19.1138541 C47.4128292,17.4185059 49.5389734,16.8376367 51.2017188,17.8164464 C52.8644641,18.7952562 53.4341628,20.9630895 52.4741763,22.6584377 C51.5141898,24.3537859 49.3880456,24.9346551 47.7253002,23.9558454 Z M38.1888097,18.3419913 C36.5260644,17.3631816 35.9563657,15.1953482 36.9163522,13.5 C37.8763387,11.8046518 40.0024829,11.2237826 41.6652283,12.2025923 C43.3279736,13.1814021 43.8976723,15.3492354 42.9376858,17.0445836 C41.9776993,18.7399318 39.8515551,19.320801 38.1888097,18.3419913 Z M76.3347717,40.7974077 C74.6720264,39.8185979 74.1023277,37.6507646 75.0623142,35.9554164 C76.0223007,34.2600682 78.1484449,33.679199 79.8111903,34.6580087 C81.4739356,35.6368184 82.0436343,37.8046518 81.0836478,39.5 C80.1236613,41.1953482 77.9975171,41.7762174 76.3347717,40.7974077 Z M70.2746998,23.9558454 C68.6119544,24.9346551 66.4858102,24.3537859 65.5258237,22.6584377 C64.5658372,20.9630895 65.1355359,18.7952562 66.7982812,17.8164464 C68.4610266,16.8376367 70.5871708,17.4185059 71.5471573,19.1138541 C72.5071438,20.8092023 71.9374451,22.9770356 70.2746998,23.9558454 Z M51.2017188,35.1835536 C49.5389734,36.1623633 47.4128292,35.5814941 46.4528427,33.8861459 C45.4928562,32.1907977 46.0625549,30.0229644 47.7253002,29.0441546 C49.3880456,28.0653449 51.5141898,28.6462141 52.4741763,30.3415623 C53.4341628,32.0369105 52.8644641,34.2047438 51.2017188,35.1835536 Z M41.6652283,40.7974077 C40.0024829,41.7762174 37.8763387,41.1953482 36.9163522,39.5 C35.9563657,37.8046518 36.5260644,35.6368184 38.1888097,34.6580087 C39.8515551,33.679199 41.9776993,34.2600682 42.9376858,35.9554164 C43.8976723,37.6507646 43.3279736,39.8185979 41.6652283,40.7974077 Z M79.8111903,18.3419913 C78.1484449,19.320801 76.0223007,18.7399318 75.0623142,17.0445836 C74.1023277,15.3492354 74.6720264,13.1814021 76.3347717,12.2025923 C77.9975171,11.2237826 80.1236613,11.8046518 81.0836478,13.5 C82.0436343,15.1953482 81.4739356,17.3631816 79.8111903,18.3419913 Z" id="Combined-Shape" fill="#50E3C2"></path>
    </g>
</svg>