<?xml version="1.0" encoding="UTF-8"?>
<svg width="240px" height="240px" viewBox="0 0 240 240" version="1.1" xmlns="http://www.w3.org/2000/svg" xmlns:xlink="http://www.w3.org/1999/xlink">
    <!-- Generator: Sketch 52.2 (67145) - http://www.bohemiancoding.com/sketch -->
    <title>Group</title>
    <desc>Created with Sketch.</desc>
    <g id="Page-1" stroke="none" stroke-width="1" fill="none" fill-rule="evenodd">
        <g id="Group" fill-rule="nonzero">
            <rect id="Mint" fill="#50E3C2" x="0" y="0" width="240" height="240" rx="54"></rect>
            <path d="M120.078125,131.09375 C113.994363,131.09375 109.0625,126.161887 109.0625,120.078125 C109.0625,113.994363 113.994363,109.0625 120.078125,109.0625 C126.161887,109.0625 131.09375,113.994363 131.09375,120.078125 C131.09375,126.161887 126.161887,131.09375 120.078125,131.09375 Z M155.390625,131.09375 C149.306863,131.09375 144.375,126.161887 144.375,120.078125 C144.375,113.994363 149.306863,109.0625 155.390625,109.0625 C161.474387,109.0625 166.40625,113.994363 166.40625,120.078125 C166.40625,126.161887 161.474387,131.09375 155.390625,131.09375 Z M84.765625,131.09375 C78.6818633,131.09375 73.75,126.161887 73.75,120.078125 C73.75,113.994363 78.6818633,109.0625 84.765625,109.0625 C90.8493867,109.0625 95.78125,113.994363 95.78125,120.078125 C95.78125,126.161887 90.8493867,131.09375 84.765625,131.09375 Z M49.453125,131.09375 C43.3693633,131.09375 38.4375,126.161887 38.4375,120.078125 C38.4375,113.994363 43.3693633,109.0625 49.453125,109.0625 C55.5368867,109.0625 60.46875,113.994363 60.46875,120.078125 C60.46875,126.161887 55.5368867,131.09375 49.453125,131.09375 Z M190.703125,131.09375 C184.619363,131.09375 179.6875,126.161887 179.6875,120.078125 C179.6875,113.994363 184.619363,109.0625 190.703125,109.0625 C196.786887,109.0625 201.71875,113.994363 201.71875,120.078125 C201.71875,126.161887 196.786887,131.09375 190.703125,131.09375 Z M109.0625,49.453125 C109.0625,43.3693633 113.994363,38.4375 120.078125,38.4375 C126.161887,38.4375 131.09375,43.3693633 131.09375,49.453125 C131.09375,55.5368867 126.161887,60.46875 120.078125,60.46875 C113.994363,60.46875 109.0625,55.5368867 109.0625,49.453125 Z M109.0625,190.703125 C109.0625,184.619363 113.994363,179.6875 120.078125,179.6875 C126.161887,179.6875 131.09375,184.619363 131.09375,190.703125 C131.09375,196.786887 126.161887,201.71875 120.078125,201.71875 C113.994363,201.71875 109.0625,196.786887 109.0625,190.703125 Z M64.5792388,164.972329 C59.2558047,168.045815 52.4487559,166.221872 49.3752698,160.898438 C46.3017836,155.575003 48.1257269,148.767955 53.449161,145.694468 C58.7725951,142.620982 65.5796439,144.444926 68.6531301,149.76836 C71.7266162,155.091794 69.902673,161.898843 64.5792388,164.972329 Z M186.707089,94.4617816 C181.383655,97.5352677 174.576606,95.7113245 171.50312,90.3878903 C168.429634,85.0644562 170.253577,78.2574074 175.577011,75.1839213 C180.900445,72.1104351 187.707494,73.9343784 190.78098,79.2578125 C193.854466,84.5812466 192.030523,91.3882954 186.707089,94.4617816 Z M53.449161,94.4617816 C48.1257269,91.3882954 46.3017836,84.5812466 49.3752698,79.2578125 C52.4487559,73.9343784 59.2558047,72.1104351 64.5792388,75.1839213 C69.902673,78.2574074 71.7266162,85.0644562 68.6531301,90.3878903 C65.5796439,95.7113245 58.7725951,97.5352677 53.449161,94.4617816 Z M175.577011,164.972329 C170.253577,161.898843 168.429634,155.091794 171.50312,149.76836 C174.576606,144.444926 181.383655,142.620982 186.707089,145.694468 C192.030523,148.767955 193.854466,155.575003 190.78098,160.898437 C187.707494,166.221872 180.900445,168.045815 175.577011,164.972329 Z M147.344692,95.1112014 C144.271206,100.434636 137.464157,102.258579 132.140723,99.1850926 C126.817289,96.1116065 124.993346,89.3045577 128.066832,83.9811235 C131.140318,78.6576894 137.947367,76.8337462 143.270801,79.9072323 C148.594235,82.9807184 150.418178,89.7877673 147.344692,95.1112014 Z M112.089418,156.175126 C109.015932,161.498561 102.208883,163.322504 96.8854493,160.249018 C91.5620152,157.175532 89.7380719,150.368483 92.8115581,145.045049 C95.8850442,139.721614 102.692093,137.897671 108.015527,140.971157 C113.338961,144.044644 115.162904,150.851692 112.089418,156.175126 Z M94.4617816,186.707089 C91.3882954,192.030523 84.5812466,193.854466 79.2578125,190.78098 C73.9343784,187.707494 72.1104351,180.900445 75.1839213,175.577011 C78.2574074,170.253577 85.0644562,168.429634 90.3878903,171.50312 C95.7113245,174.576606 97.5352677,181.383655 94.4617816,186.707089 Z M164.972329,64.5792388 C161.898843,69.902673 155.091794,71.7266162 149.76836,68.6531301 C144.444926,65.5796439 142.620982,58.7725951 145.694468,53.449161 C148.767955,48.1257269 155.575003,46.3017836 160.898438,49.3752698 C166.221872,52.4487559 168.045815,59.2558047 164.972329,64.5792388 Z M112.089418,83.9811235 C115.162904,89.3045577 113.338961,96.1116065 108.015527,99.1850926 C102.692093,102.258579 95.8850442,100.434636 92.8115581,95.1112014 C89.7380719,89.7877673 91.5620152,82.9807184 96.8854493,79.9072323 C102.208883,76.8337462 109.015932,78.6576894 112.089418,83.9811235 Z M147.344692,145.045049 C150.418178,150.368483 148.594235,157.175532 143.270801,160.249018 C137.947367,163.322504 131.140318,161.498561 128.066832,156.175126 C124.993346,150.851692 126.817289,144.044644 132.140723,140.971157 C137.464157,137.897671 144.271206,139.721614 147.344692,145.045049 Z M164.972329,175.577011 C168.045815,180.900445 166.221872,187.707494 160.898438,190.78098 C155.575003,193.854466 148.767955,192.030523 145.694468,186.707089 C142.620982,181.383655 144.444926,174.576606 149.76836,171.50312 C155.091794,168.429634 161.898843,170.253577 164.972329,175.577011 Z M94.4617816,53.449161 C97.5352677,58.7725951 95.7113245,65.5796439 90.3878903,68.6531301 C85.0644562,71.7266162 78.2574074,69.902673 75.1839213,64.5792388 C72.1104351,59.2558047 73.9343784,52.4487559 79.2578125,49.3752698 C84.5812466,46.3017836 91.3882954,48.1257269 94.4617816,53.449161 Z" id="Combined-Shape" fill="#8F12FF" transform="translate(120.078125, 120.078125) rotate(90.000000) translate(-120.078125, -120.078125) "></path>
        </g>
    </g>
</svg>